<?xml version="1.0" standalone="no"?>
<!DOCTYPE svg PUBLIC "-//W3C//DTD SVG 20010904//EN"
 "http://www.w3.org/TR/2001/REC-SVG-20010904/DTD/svg10.dtd">
<svg version="1.0" xmlns="http://www.w3.org/2000/svg"
 width="512.000000pt" height="512.000000pt" viewBox="0 0 512.000000 512.000000"
 preserveAspectRatio="xMidYMid meet">

<g transform="translate(0.000000,512.000000) scale(0.100000,-0.100000)"
fill="#000000" stroke="none">
<path d="M3707 3690 c-192 -40 -305 -96 -412 -204 -80 -80 -127 -162 -150
-257 -19 -83 -21 -344 -2 -336 231 102 431 148 632 146 l120 -1 -115 -14
c-203 -24 -360 -67 -522 -142 -208 -96 -358 -238 -358 -338 0 -69 62 -134 173
-180 67 -29 137 -42 120 -23 -18 18 -16 74 3 115 84 177 623 340 1007 305 243
-23 381 -90 443 -216 l26 -55 29 21 c53 37 102 116 114 182 21 113 -78 231
-232 277 -41 13 -42 14 -47 64 -25 259 -35 320 -65 380 -55 112 -177 207 -321
251 -158 47 -298 55 -443 25z"/>
<path d="M1269 3248 c-17 -24 -60 -90 -96 -148 -36 -58 -74 -117 -83 -131 -38
-54 -90 -170 -90 -198 0 -88 35 -81 84 17 46 93 147 264 153 259 2 -3 -8 -43
-21 -91 -38 -129 -41 -174 -16 -214 11 -19 26 -32 33 -29 6 2 50 60 97 129 47
69 95 139 108 154 l23 29 -17 -40 c-9 -22 -29 -71 -45 -109 -32 -76 -37 -137
-14 -156 21 -18 26 -11 74 104 24 54 71 157 107 227 70 140 78 181 44 220
l-21 24 -24 -30 c-13 -16 -51 -66 -85 -110 -167 -220 -194 -255 -197 -252 -1
2 16 62 38 133 49 156 53 193 20 228 -14 14 -28 26 -33 26 -4 0 -22 -19 -39
-42z"/>
<path d="M2155 3191 c-34 -55 -41 -61 -81 -67 -49 -7 -60 -30 -19 -40 14 -3
25 -8 25 -10 0 -3 -14 -31 -30 -64 -17 -33 -39 -83 -51 -112 -21 -53 -55 -108
-67 -108 -7 0 -8 256 -1 300 9 56 -71 21 -86 -37 -11 -44 -84 -143 -100 -137
-24 10 -43 -14 -51 -62 -5 -33 -15 -51 -40 -74 -19 -16 -39 -30 -44 -30 -23 0
-7 68 37 153 47 92 58 146 35 169 -17 17 -42 -10 -92 -102 -72 -130 -84 -195
-44 -234 24 -24 95 -20 136 7 l34 24 28 -22 c51 -41 146 -38 207 6 l28 19 25
-25 c33 -33 90 -34 137 -2 l34 23 34 -23 c94 -63 223 5 318 168 37 63 50 78
73 81 32 5 32 4 -11 -55 -31 -42 -54 -125 -44 -157 11 -34 46 -60 82 -60 74 0
157 72 151 129 -5 40 -24 35 -53 -14 -26 -45 -80 -89 -97 -79 -14 9 -9 73 9
107 9 18 33 55 55 83 42 56 47 90 19 125 l-18 22 -35 -21 c-51 -32 -61 -29
-54 16 12 75 -33 81 -85 10 -32 -45 -35 -59 -17 -88 10 -15 9 -26 -5 -55 -20
-42 -85 -132 -115 -158 -30 -27 -93 -47 -113 -36 -20 10 -32 51 -24 82 6 22
10 23 61 19 53 -4 56 -4 94 37 64 68 66 133 4 172 -32 19 -40 20 -75 10 -22
-7 -55 -25 -74 -42 -42 -37 -95 -140 -95 -185 0 -56 -79 -128 -101 -93 -20 31
-6 79 54 194 61 115 64 120 98 123 49 5 59 19 30 43 -19 16 -24 30 -25 71 -1
29 -6 53 -13 55 -6 2 -28 -23 -48 -56z m235 -156 c0 -19 -44 -87 -71 -109 -43
-36 -59 -20 -30 28 31 50 101 106 101 81z m-555 -252 c-7 -29 -29 -29 -49 -1
-23 32 -20 48 17 104 l32 49 3 -65 c2 -35 0 -75 -3 -87z"/>
<path d="M1696 3164 c-23 -22 -20 -60 6 -78 30 -21 35 -20 53 8 13 19 14 29 5
45 -17 33 -46 44 -64 25z"/>
<path d="M4271 2590 c-19 -16 -64 -39 -100 -51 -49 -17 -79 -35 -116 -71 l-50
-49 76 7 c45 3 106 1 152 -6 87 -14 114 -5 142 50 18 34 14 37 -21 13 -27 -18
-102 -21 -129 -5 -15 8 -12 12 18 31 25 15 40 35 51 66 8 25 14 45 13 45 -1
-1 -17 -14 -36 -30z"/>
<path d="M3517 2545 c-86 -22 -137 -77 -156 -166 -7 -30 -11 -181 -11 -374 l0
-324 -37 -10 c-103 -29 -262 -5 -422 63 -47 20 -86 34 -89 32 -7 -8 125 -151
182 -198 160 -129 385 -185 563 -140 166 42 273 118 331 234 56 111 62 252 15
317 -11 14 -37 36 -58 48 -130 73 -272 7 -325 -151 -21 -65 -72 -145 -97 -154
-10 -3 -13 49 -13 237 0 154 4 241 10 241 6 0 10 -4 10 -10 0 -5 22 -21 50
-35 98 -50 216 -21 277 69 25 36 28 50 28 118 0 69 -3 81 -30 119 -31 44 -94
83 -150 92 -16 3 -52 -1 -78 -8z"/>
</g>
</svg>
