<svg id="euluc7fpfsb1" xmlns="http://www.w3.org/2000/svg" xmlns:xlink="http://www.w3.org/1999/xlink" viewBox="0 0 640 480" shape-rendering="geometricPrecision" text-rendering="geometricPrecision"><style><![CDATA[#euluc7fpfsb2 {animation: euluc7fpfsb2_s_do 2000ms linear infinite normal forwards}@keyframes euluc7fpfsb2_s_do { 0% {stroke-dashoffset: 6157.950000} 50% {stroke-dashoffset: 4105.300000} 100% {stroke-dashoffset: 2250.650000} }#euluc7fpfsb3 {animation: euluc7fpfsb3_s_do 2000ms linear infinite normal forwards}@keyframes euluc7fpfsb3_s_do { 0% {stroke-dashoffset: -910} 100% {stroke-dashoffset: 0} }#euluc7fpfsb7 {animation: euluc7fpfsb7_f_p 2000ms linear infinite normal forwards}@keyframes euluc7fpfsb7_f_p { 0% {fill: rgb(238,136,0)} 5% {fill: rgb(238,136,0)} 15% {fill: rgb(255,255,255)} 55% {fill: rgb(255,255,255)} 65% {fill: rgb(238,136,0)} 100% {fill: rgb(238,136,0)} }]]></style><defs><linearGradient id="euluc7fpfsb3-stroke" x1="0" y1="0.500000" x2="1" y2="0.500000" spreadMethod="pad" gradientUnits="objectBoundingBox"><stop id="euluc7fpfsb3-stroke-0" offset="0%" stop-color="rgb(0,0,0)"/><stop id="euluc7fpfsb3-stroke-1" offset="100%" stop-color="rgb(238,136,0)"/></linearGradient></defs><circle id="euluc7fpfsb2" r="284.456450" transform="matrix(0.31000000000000 0 0 0.31000000000000 320.00000000006781 239.99999999611865)" clip-rule="evenodd" fill="none" stroke="rgb(238,136,0)" stroke-width="568" stroke-linejoin="round" stroke-miterlimit="1.500000" stroke-dashoffset="6157.950000" stroke-dasharray="2052"/><circle id="euluc7fpfsb3" r="326.688995" transform="matrix(0.60641023017614 0 0 0.62010465575149 319.99999999933215 239.99999999903852)" clip-rule="evenodd" fill="none" fill-rule="evenodd" stroke="url(#euluc7fpfsb3-stroke)" stroke-width="25" stroke-linecap="round" stroke-linejoin="round" stroke-miterlimit="1.500000" stroke-dashoffset="-910" stroke-dasharray="26,50"/><g id="euluc7fpfsb4" transform="matrix(0.26564105588736 0 0 0.27157126101799 320.33494952372246 235.99999834464029)"><g id="euluc7fpfsb5" transform="matrix(1 0 0 1 -1433.70410156250000 -866.26306152343750)" clip-rule="evenodd"><path id="euluc7fpfsb6" d="M1800.400000,971.844000C1800.190000,969.312000,1800.090000,966.746000,1800.090000,964.158000C1800.090000,964.157000,1800.090000,964.157000,1800.090000,964.156000C1800.130000,911.326000,1843.610000,867.875000,1896.440000,867.875000C1896.470000,867.875000,1896.490000,867.875000,1896.520000,867.875000C1949.280000,867.956000,1992.660000,911.394000,1992.660000,964.158000C1992.660000,1016.980000,1949.190000,1060.440000,1896.370000,1060.440000C1866.270000,1060.440000,1839.210000,1046.320000,1821.500000,1024.410000L1821.500000,1245.730000L1821.480000,1245.750000L1821.260000,1245.910000C1819.570000,1247.120000,1817.830000,1248.300000,1816.060000,1249.440000C1810.820000,1252.780000,1805.500000,1255.580000,1800.120000,1258.030000L1800.090000,1258.040000L1800.090000,1258.040000L1800.120000,1258.030000C1805.750000,1255.510000,1811.060000,1252.640000,1816.060000,1249.440000C1817.800000,1248.320000,1819.540000,1247.150000,1821.260000,1245.910000L1821.460000,1245.770000L1821.480000,1245.750000L1821.500000,1245.730000L1821.500000,1245.730000C1845.760000,1228.210000,1861.960000,1202.280000,1870.510000,1170.530000C1902.490000,1051.720000,2053.860000,1080.550000,2055.460000,1166.560000C2055.240000,1171.010000,2057.420000,1170.120000,2057.200000,1174.570000C2057.200000,1369.600000,1832.400000,1421.940000,1688.820000,1345.970000C1594.330000,1295.960000,1564.080000,1232.490000,1545.400000,1214.660000C1542.290000,1213.080000,1539.180000,1211.470000,1536.040000,1209.820000C1538.990000,1209.680000,1542.010000,1211.420000,1545.400000,1214.660000C1661.660000,1273.870000,1745.640000,1282.400000,1800.090000,1258.040000L1800.090000,971.844000L1800.400000,971.844000ZM2057.210000,656.943000C1968.710000,630.598000,1782.380000,673.986000,1699.110000,721.143000C1700.540000,624.166000,1696.950000,671.700000,1699.110000,617.202000C1712.200000,285.645000,2287.850000,273.472000,2317.370000,540.774000C2325.080000,610.640000,2327.160000,614.710000,2329.930000,675.857000C2505.510000,721.010000,2468.760000,852.365000,2388.230000,897.833000C2330.320000,655.768000,1629.560000,814.918000,1730.950000,971.825000C1393.130000,892.557000,1766.400000,646.986000,2054.150000,656.944000L2057.210000,656.943000ZM2097.710000,922.062000C2158.190000,850.433000,2178.170000,897.723000,2229.480000,834.152000C2214.030000,862.654000,2230.090000,876.567000,2180.050000,899.835000C2202.760000,908.495000,2224.640000,920.550000,2268.630000,887.276000C2218.850000,977.629000,2229.700000,903.589000,2087.810000,932.081000L2097,922.910000L2097.710000,922.062000Z" transform="matrix(1 0 0 1 -580.17413330078125 0.00007045000530)" clip-rule="evenodd" fill="rgb(0,0,0)" stroke="none" stroke-width="1.176471" stroke-linejoin="round" stroke-miterlimit="2"/><path id="euluc7fpfsb7" d="M2061.160000,1156.350000C2062.840000,1083.140000,2193.790000,1035.540000,2236.420000,1130.170000C2274.380000,1214.410000,2392.700000,1217.760000,2483.960000,1127.870000C2473.250000,1129.080000,2479.270000,1178.600000,2421.320000,1242.420000C2311.930000,1362.890000,2058.930000,1349.510000,2058.930000,1164.430000C2058.640000,1160.130000,2061.440000,1160.620000,2061.160000,1156.350000Z" transform="matrix(1 0 0 1 -572.41778564453125 -1.55126702785492)" clip-rule="evenodd" fill="rgb(238,136,0)" stroke="none" stroke-width="1.176471" stroke-linejoin="round" stroke-miterlimit="2"/></g></g></svg>